<svg width="32" height="32" viewBox="0 0 32 32" fill="none" xmlns="http://www.w3.org/2000/svg">
  <!-- Cloud outline -->
  <path d="M6 10c-2.8 0-5 2.2-5 5s2.2 5 5 5h3c1-1.5 2.6-2.5 4.5-2.5s3.5 1 4.5 2.5H22c2.8 0 5-2.2 5-5s-2.2-5-5-5c-.8 0-1.5.2-2.2.4-1-2.3-3.3-3.9-5.8-3.9-1.8 0-3.4.8-4.5 2.1C8.2 10.1 7.1 10 6 10z" stroke="#1e40af" stroke-width="2.5" fill="none"/>
  
  <!-- Magnifying glass inside cloud -->
  <circle cx="16" cy="16" r="5" stroke="#1e40af" stroke-width="2.5" fill="none"/>
  <path d="M20.5 20.5l4 4" stroke="#1e40af" stroke-width="2.5" stroke-linecap="round"/>
</svg>
